<mxfile host="app.diagrams.net" agent="Mozilla/5.0 (Windows NT 10.0; Win64; x64) AppleWebKit/537.36 (KHTML, like Gecko) Chrome/131.0.0.0 Safari/537.36" version="26.1.1">
  <diagram name="Página-1" id="ssY0a-lsV6pVMud-pwid">
    <mxGraphModel dx="1173" dy="579" grid="1" gridSize="10" guides="1" tooltips="1" connect="1" arrows="1" fold="1" page="1" pageScale="1" pageWidth="827" pageHeight="1169" math="0" shadow="0">
      <root>
        <mxCell id="0" />
        <mxCell id="1" parent="0" />
        <mxCell id="2XEeb3x4QMcPgkgz6Vr9-1" value="INICIO" style="ellipse;whiteSpace=wrap;html=1;fillColor=#dae8fc;gradientColor=#7ea6e0;strokeColor=#6c8ebf;" vertex="1" parent="1">
          <mxGeometry x="348.5" y="40" width="100" height="50" as="geometry" />
        </mxCell>
        <mxCell id="2XEeb3x4QMcPgkgz6Vr9-2" value="SEGUNDOS = 0, MINUTOS = 0, HORAS = 0, DIAS = 1, MESES = 1, AÑO = 2025,&lt;div&gt;DIA-SEMANA = &quot;MIERCOLES&quot;, CALCULO-DIA = 6&lt;/div&gt;" style="shape=parallelogram;perimeter=parallelogramPerimeter;whiteSpace=wrap;html=1;fixedSize=1;fillColor=#ffcd28;gradientColor=#ffa500;strokeColor=#d79b00;" vertex="1" parent="1">
          <mxGeometry x="290" y="120" width="200" height="110" as="geometry" />
        </mxCell>
        <mxCell id="2XEeb3x4QMcPgkgz6Vr9-4" value="" style="shape=process;whiteSpace=wrap;html=1;backgroundOutline=1;direction=south;fillColor=#f5f5f5;gradientColor=#b3b3b3;strokeColor=#666666;" vertex="1" parent="1">
          <mxGeometry x="225" y="1320" width="330" height="340" as="geometry" />
        </mxCell>
        <mxCell id="2XEeb3x4QMcPgkgz6Vr9-5" value="SEGUNDOS != 60" style="text;html=1;align=center;verticalAlign=middle;whiteSpace=wrap;rounded=0;" vertex="1" parent="1">
          <mxGeometry x="336" y="1320" width="125" height="30" as="geometry" />
        </mxCell>
        <mxCell id="2XEeb3x4QMcPgkgz6Vr9-6" value="SEGUNDOS == 60?" style="rhombus;whiteSpace=wrap;html=1;fillColor=#fff2cc;gradientColor=#ffd966;strokeColor=#d6b656;" vertex="1" parent="1">
          <mxGeometry x="333.5" y="1380" width="130" height="60" as="geometry" />
        </mxCell>
      </root>
    </mxGraphModel>
  </diagram>
</mxfile>
